<mxfile host="app.diagrams.net" modified="2023-04-16T13:15:40.796Z" agent="Mozilla/5.0 (Windows NT 10.0; Win64; x64) AppleWebKit/537.36 (KHTML, like Gecko) Chrome/111.0.0.0 Safari/537.36" etag="i30ewRJqKmfV_GrNHD_e" version="21.1.7" type="github">
  <diagram id="5j97dR44W0pkRMfTW0MN" name="‫עמוד-1‬">
    <mxGraphModel dx="811" dy="424" grid="0" gridSize="10" guides="1" tooltips="1" connect="1" arrows="1" fold="1" page="1" pageScale="1" pageWidth="827" pageHeight="1169" math="0" shadow="0">
      <root>
        <mxCell id="0" />
        <mxCell id="1" parent="0" />
        <mxCell id="RlVIT7YuRauQy9fZDoNZ-9" value="User" style="swimlane;fontStyle=1;align=center;verticalAlign=top;childLayout=stackLayout;horizontal=1;startSize=30;horizontalStack=0;resizeParent=1;resizeParentMax=0;resizeLast=0;collapsible=1;marginBottom=0;rounded=0;" parent="1" vertex="1">
          <mxGeometry x="301" y="133" width="199" height="192" as="geometry" />
        </mxCell>
        <mxCell id="RlVIT7YuRauQy9fZDoNZ-10" value="+ Fname: string&#xa;+ Lname: string&#xa;+ password: string&#xa;+ email: string&#xa;+ id: string&#xa;+ newLikes: bool" style="text;strokeColor=none;fillColor=none;align=left;verticalAlign=top;spacingLeft=4;spacingRight=4;overflow=hidden;rotatable=0;points=[[0,0.5],[1,0.5]];portConstraint=eastwest;rounded=0;" parent="RlVIT7YuRauQy9fZDoNZ-9" vertex="1">
          <mxGeometry y="30" width="199" height="94" as="geometry" />
        </mxCell>
        <mxCell id="RlVIT7YuRauQy9fZDoNZ-11" value="" style="line;strokeWidth=1;fillColor=none;align=left;verticalAlign=middle;spacingTop=-1;spacingLeft=3;spacingRight=3;rotatable=0;labelPosition=right;points=[];portConstraint=eastwest;strokeColor=inherit;rounded=0;" parent="RlVIT7YuRauQy9fZDoNZ-9" vertex="1">
          <mxGeometry y="124" width="199" height="8" as="geometry" />
        </mxCell>
        <mxCell id="RlVIT7YuRauQy9fZDoNZ-12" value="+ User(ID: string, email: string,&#xa;        pssword: string, Fname: string,&#xa;        Lname:string, newLikes: bool)" style="text;strokeColor=none;fillColor=none;align=left;verticalAlign=top;spacingLeft=4;spacingRight=4;overflow=hidden;rotatable=0;points=[[0,0.5],[1,0.5]];portConstraint=eastwest;rounded=0;" parent="RlVIT7YuRauQy9fZDoNZ-9" vertex="1">
          <mxGeometry y="132" width="199" height="60" as="geometry" />
        </mxCell>
        <mxCell id="RlVIT7YuRauQy9fZDoNZ-13" value="Post" style="swimlane;fontStyle=1;align=center;verticalAlign=top;childLayout=stackLayout;horizontal=1;startSize=30;horizontalStack=0;resizeParent=1;resizeParentMax=0;resizeLast=0;collapsible=1;marginBottom=0;" parent="1" vertex="1">
          <mxGeometry x="584" y="133" width="200" height="175" as="geometry" />
        </mxCell>
        <mxCell id="RlVIT7YuRauQy9fZDoNZ-14" value="+ creator: string&#xa;+ content: string&#xa;+ filter: string&#xa;+ cFname: string&#xa;+ cLname: string" style="text;strokeColor=none;fillColor=none;align=left;verticalAlign=top;spacingLeft=4;spacingRight=4;overflow=hidden;rotatable=0;points=[[0,0.5],[1,0.5]];portConstraint=eastwest;" parent="RlVIT7YuRauQy9fZDoNZ-13" vertex="1">
          <mxGeometry y="30" width="200" height="78" as="geometry" />
        </mxCell>
        <mxCell id="RlVIT7YuRauQy9fZDoNZ-15" value="" style="line;strokeWidth=1;fillColor=none;align=left;verticalAlign=middle;spacingTop=-1;spacingLeft=3;spacingRight=3;rotatable=0;labelPosition=right;points=[];portConstraint=eastwest;strokeColor=inherit;" parent="RlVIT7YuRauQy9fZDoNZ-13" vertex="1">
          <mxGeometry y="108" width="200" height="11" as="geometry" />
        </mxCell>
        <mxCell id="RlVIT7YuRauQy9fZDoNZ-16" value="+ Post(id: string, creator: string, &#xa;        content: string, filter: string,&#xa;        fname:string, lname:string)" style="text;strokeColor=none;fillColor=none;align=left;verticalAlign=top;spacingLeft=4;spacingRight=4;overflow=hidden;rotatable=0;points=[[0,0.5],[1,0.5]];portConstraint=eastwest;" parent="RlVIT7YuRauQy9fZDoNZ-13" vertex="1">
          <mxGeometry y="119" width="200" height="56" as="geometry" />
        </mxCell>
        <mxCell id="RlVIT7YuRauQy9fZDoNZ-22" value="" style="endArrow=block;endSize=16;endFill=0;html=1;rounded=0;exitX=0.5;exitY=0;exitDx=0;exitDy=0;entryX=-0.003;entryY=0.399;entryDx=0;entryDy=0;dashed=1;entryPerimeter=0;" parent="1" source="RlVIT7YuRauQy9fZDoNZ-9" target="RlVIT7YuRauQy9fZDoNZ-42" edge="1">
          <mxGeometry width="160" relative="1" as="geometry">
            <mxPoint x="331" y="201" as="sourcePoint" />
            <mxPoint x="431.0000000000001" y="61" as="targetPoint" />
            <Array as="points">
              <mxPoint x="401" y="58" />
            </Array>
          </mxGeometry>
        </mxCell>
        <mxCell id="RlVIT7YuRauQy9fZDoNZ-42" value="&lt;p style=&quot;margin:0px;margin-top:4px;text-align:center;&quot;&gt;&lt;i&gt;&amp;lt;&amp;lt;Interface&amp;gt;&amp;gt;&lt;/i&gt;&lt;br&gt;&lt;b&gt;IDatabaseObject&lt;/b&gt;&lt;/p&gt;&lt;hr size=&quot;1&quot;&gt;&lt;p style=&quot;margin:0px;margin-left:4px;&quot;&gt;+ id: string&lt;br&gt;&lt;/p&gt;&lt;hr size=&quot;1&quot;&gt;&lt;p style=&quot;margin:0px;margin-left:4px;&quot;&gt;&lt;br&gt;&lt;/p&gt;" style="verticalAlign=top;align=left;overflow=fill;fontSize=12;fontFamily=Helvetica;html=1;" parent="1" vertex="1">
          <mxGeometry x="431" y="21" width="160" height="100" as="geometry" />
        </mxCell>
        <mxCell id="RlVIT7YuRauQy9fZDoNZ-43" value="" style="endArrow=block;endSize=16;endFill=0;html=1;rounded=0;exitX=0.65;exitY=0.005;exitDx=0;exitDy=0;dashed=1;entryX=0.992;entryY=0.671;entryDx=0;entryDy=0;entryPerimeter=0;exitPerimeter=0;" parent="1" source="RlVIT7YuRauQy9fZDoNZ-13" target="RlVIT7YuRauQy9fZDoNZ-42" edge="1">
          <mxGeometry width="160" relative="1" as="geometry">
            <mxPoint x="711" y="211.0000000000001" as="sourcePoint" />
            <mxPoint x="591" y="61" as="targetPoint" />
            <Array as="points">
              <mxPoint x="715" y="87" />
            </Array>
          </mxGeometry>
        </mxCell>
        <mxCell id="RlVIT7YuRauQy9fZDoNZ-53" value="" style="endArrow=block;endSize=16;endFill=0;html=1;rounded=0;entryX=0.467;entryY=0.993;entryDx=0;entryDy=0;entryPerimeter=0;" parent="1" target="Nct13a2ik9a1Dru6cYVa-1" edge="1">
          <mxGeometry width="160" relative="1" as="geometry">
            <mxPoint x="490" y="529" as="sourcePoint" />
            <mxPoint x="566.29" y="836.176" as="targetPoint" />
            <Array as="points" />
          </mxGeometry>
        </mxCell>
        <mxCell id="RlVIT7YuRauQy9fZDoNZ-58" value="" style="endArrow=none;html=1;rounded=0;" parent="1" edge="1">
          <mxGeometry width="50" height="50" relative="1" as="geometry">
            <mxPoint x="334" y="529" as="sourcePoint" />
            <mxPoint x="670" y="529" as="targetPoint" />
          </mxGeometry>
        </mxCell>
        <mxCell id="RlVIT7YuRauQy9fZDoNZ-59" value="" style="endArrow=none;html=1;rounded=0;" parent="1" edge="1">
          <mxGeometry width="50" height="50" relative="1" as="geometry">
            <mxPoint x="333.97" y="589" as="sourcePoint" />
            <mxPoint x="333.97" y="529" as="targetPoint" />
          </mxGeometry>
        </mxCell>
        <mxCell id="RlVIT7YuRauQy9fZDoNZ-60" value="" style="endArrow=none;html=1;rounded=0;" parent="1" edge="1">
          <mxGeometry width="50" height="50" relative="1" as="geometry">
            <mxPoint x="490" y="589" as="sourcePoint" />
            <mxPoint x="490" y="529" as="targetPoint" />
          </mxGeometry>
        </mxCell>
        <mxCell id="RlVIT7YuRauQy9fZDoNZ-61" value="" style="endArrow=none;html=1;rounded=0;exitX=0.497;exitY=-0.004;exitDx=0;exitDy=0;exitPerimeter=0;" parent="1" edge="1">
          <mxGeometry width="50" height="50" relative="1" as="geometry">
            <mxPoint x="670.6399999999999" y="588.864" as="sourcePoint" />
            <mxPoint x="670" y="529" as="targetPoint" />
          </mxGeometry>
        </mxCell>
        <mxCell id="RlVIT7YuRauQy9fZDoNZ-62" value="PixelFilter" style="swimlane;fontStyle=1;align=center;verticalAlign=top;childLayout=stackLayout;horizontal=1;startSize=26;horizontalStack=0;resizeParent=1;resizeParentMax=0;resizeLast=0;collapsible=1;marginBottom=0;" parent="1" vertex="1">
          <mxGeometry x="594" y="586" width="120" height="34" as="geometry" />
        </mxCell>
        <mxCell id="RlVIT7YuRauQy9fZDoNZ-64" value="" style="line;strokeWidth=1;fillColor=none;align=left;verticalAlign=middle;spacingTop=-1;spacingLeft=3;spacingRight=3;rotatable=0;labelPosition=right;points=[];portConstraint=eastwest;strokeColor=inherit;" parent="RlVIT7YuRauQy9fZDoNZ-62" vertex="1">
          <mxGeometry y="26" width="120" height="8" as="geometry" />
        </mxCell>
        <mxCell id="RlVIT7YuRauQy9fZDoNZ-66" value="AsciiFilter" style="swimlane;fontStyle=1;align=center;verticalAlign=top;childLayout=stackLayout;horizontal=1;startSize=26;horizontalStack=0;resizeParent=1;resizeParentMax=0;resizeLast=0;collapsible=1;marginBottom=0;" parent="1" vertex="1">
          <mxGeometry x="434" y="589" width="110" height="34" as="geometry" />
        </mxCell>
        <mxCell id="RlVIT7YuRauQy9fZDoNZ-67" value="" style="line;strokeWidth=1;fillColor=none;align=left;verticalAlign=middle;spacingTop=-1;spacingLeft=3;spacingRight=3;rotatable=0;labelPosition=right;points=[];portConstraint=eastwest;strokeColor=inherit;" parent="RlVIT7YuRauQy9fZDoNZ-66" vertex="1">
          <mxGeometry y="26" width="110" height="8" as="geometry" />
        </mxCell>
        <mxCell id="I7XnUN0qQvFKLFBBOWLg-1" value="MonochromeFilter" style="swimlane;fontStyle=1;align=center;verticalAlign=top;childLayout=stackLayout;horizontal=1;startSize=26;horizontalStack=0;resizeParent=1;resizeParentMax=0;resizeLast=0;collapsible=1;marginBottom=0;" parent="1" vertex="1">
          <mxGeometry x="282" y="589" width="133" height="34" as="geometry" />
        </mxCell>
        <mxCell id="I7XnUN0qQvFKLFBBOWLg-2" value="" style="line;strokeWidth=1;fillColor=none;align=left;verticalAlign=middle;spacingTop=-1;spacingLeft=3;spacingRight=3;rotatable=0;labelPosition=right;points=[];portConstraint=eastwest;strokeColor=inherit;" parent="I7XnUN0qQvFKLFBBOWLg-1" vertex="1">
          <mxGeometry y="26" width="133" height="8" as="geometry" />
        </mxCell>
        <mxCell id="Nct13a2ik9a1Dru6cYVa-1" value="&lt;p style=&quot;margin:0px;margin-top:4px;text-align:center;&quot;&gt;&lt;i&gt;&amp;lt;&amp;lt;Interface&amp;gt;&amp;gt;&lt;/i&gt;&lt;br&gt;&lt;b&gt;IFilter&lt;/b&gt;&lt;/p&gt;&lt;hr size=&quot;1&quot;&gt;&lt;p style=&quot;margin:0px;margin-left:4px;&quot;&gt;+ name: string&lt;/p&gt;&lt;hr size=&quot;1&quot;&gt;&lt;p style=&quot;margin:0px;margin-left:4px;&quot;&gt;+ Apply(img: Bitmap): Bitmap&lt;/p&gt;" style="verticalAlign=top;align=left;overflow=fill;fontSize=12;fontFamily=Helvetica;html=1;" parent="1" vertex="1">
          <mxGeometry x="401" y="396" width="190" height="98" as="geometry" />
        </mxCell>
        <mxCell id="Nct13a2ik9a1Dru6cYVa-2" value="&lt;p style=&quot;margin:0px;margin-top:4px;text-align:center;&quot;&gt;&lt;i&gt;&amp;lt;&amp;lt;utility&amp;gt;&amp;gt;&lt;/i&gt;&lt;br&gt;&lt;b&gt;Live&lt;/b&gt;&lt;/p&gt;&lt;hr size=&quot;1&quot;&gt;&lt;p style=&quot;margin:0px;margin-left:4px;&quot;&gt;+ db: FirebaseFirestore&lt;br&gt;+ user: User&lt;/p&gt;&lt;hr size=&quot;1&quot;&gt;&lt;p style=&quot;margin:0px;margin-left:4px;&quot;&gt;&lt;br&gt;&lt;/p&gt;" style="verticalAlign=top;align=left;overflow=fill;fontSize=12;fontFamily=Helvetica;html=1;" parent="1" vertex="1">
          <mxGeometry x="13" y="156" width="190" height="88" as="geometry" />
        </mxCell>
        <mxCell id="Nct13a2ik9a1Dru6cYVa-3" value="" style="endArrow=diamondThin;endFill=1;endSize=24;html=1;rounded=0;strokeWidth=1;entryX=0.003;entryY=0.438;entryDx=0;entryDy=0;entryPerimeter=0;exitX=0.75;exitY=1;exitDx=0;exitDy=0;" parent="1" edge="1" target="RlVIT7YuRauQy9fZDoNZ-11" source="Nct13a2ik9a1Dru6cYVa-2">
          <mxGeometry width="160" relative="1" as="geometry">
            <mxPoint x="281" y="480" as="sourcePoint" />
            <mxPoint x="281" y="389" as="targetPoint" />
            <Array as="points">
              <mxPoint x="156" y="258" />
            </Array>
          </mxGeometry>
        </mxCell>
        <mxCell id="y8lSkwkgNfRTHlhiDQfK-1" value="AnimationHelper" style="swimlane;fontStyle=1;align=center;verticalAlign=top;childLayout=stackLayout;horizontal=1;startSize=30;horizontalStack=0;resizeParent=1;resizeParentMax=0;resizeLast=0;collapsible=1;marginBottom=0;rounded=0;" vertex="1" parent="1">
          <mxGeometry x="55" y="696" width="213" height="77" as="geometry" />
        </mxCell>
        <mxCell id="y8lSkwkgNfRTHlhiDQfK-3" value="" style="line;strokeWidth=1;fillColor=none;align=left;verticalAlign=middle;spacingTop=-1;spacingLeft=3;spacingRight=3;rotatable=0;labelPosition=right;points=[];portConstraint=eastwest;strokeColor=inherit;rounded=0;" vertex="1" parent="y8lSkwkgNfRTHlhiDQfK-1">
          <mxGeometry y="30" width="213" height="8" as="geometry" />
        </mxCell>
        <mxCell id="y8lSkwkgNfRTHlhiDQfK-4" value="+ ScaleIn (ctx: Context, v: View): void&#xa;+ ScaleOut (ctx: Context, v: View): void" style="text;strokeColor=none;fillColor=none;align=left;verticalAlign=top;spacingLeft=4;spacingRight=4;overflow=hidden;rotatable=0;points=[[0,0.5],[1,0.5]];portConstraint=eastwest;rounded=0;" vertex="1" parent="y8lSkwkgNfRTHlhiDQfK-1">
          <mxGeometry y="38" width="213" height="39" as="geometry" />
        </mxCell>
        <mxCell id="y8lSkwkgNfRTHlhiDQfK-5" value="ImageHelper" style="swimlane;fontStyle=1;align=center;verticalAlign=top;childLayout=stackLayout;horizontal=1;startSize=30;horizontalStack=0;resizeParent=1;resizeParentMax=0;resizeLast=0;collapsible=1;marginBottom=0;rounded=0;" vertex="1" parent="1">
          <mxGeometry x="276" y="696" width="271" height="124" as="geometry" />
        </mxCell>
        <mxCell id="y8lSkwkgNfRTHlhiDQfK-6" value="" style="line;strokeWidth=1;fillColor=none;align=left;verticalAlign=middle;spacingTop=-1;spacingLeft=3;spacingRight=3;rotatable=0;labelPosition=right;points=[];portConstraint=eastwest;strokeColor=inherit;rounded=0;" vertex="1" parent="y8lSkwkgNfRTHlhiDQfK-5">
          <mxGeometry y="30" width="271" height="8" as="geometry" />
        </mxCell>
        <mxCell id="y8lSkwkgNfRTHlhiDQfK-7" value="+ BitmpToBase64(bitmap: Bitmap): string&#xa;+ Base64ToBitmap(base64String: string): Bitmap&#xa;+ CropToSquare(bitmap: Bitmap): Bitmap&#xa;+ GetResizedBitmap(image: Bitmap,&#xa;   newHeight: int, newWidth: int): Bitmap&#xa;" style="text;strokeColor=none;fillColor=none;align=left;verticalAlign=top;spacingLeft=4;spacingRight=4;overflow=hidden;rotatable=0;points=[[0,0.5],[1,0.5]];portConstraint=eastwest;rounded=0;" vertex="1" parent="y8lSkwkgNfRTHlhiDQfK-5">
          <mxGeometry y="38" width="271" height="86" as="geometry" />
        </mxCell>
        <mxCell id="y8lSkwkgNfRTHlhiDQfK-8" value="NavbarHelper" style="swimlane;fontStyle=1;align=center;verticalAlign=top;childLayout=stackLayout;horizontal=1;startSize=30;horizontalStack=0;resizeParent=1;resizeParentMax=0;resizeLast=0;collapsible=1;marginBottom=0;rounded=0;" vertex="1" parent="1">
          <mxGeometry x="55" y="781" width="213" height="108" as="geometry" />
        </mxCell>
        <mxCell id="y8lSkwkgNfRTHlhiDQfK-9" value="" style="line;strokeWidth=1;fillColor=none;align=left;verticalAlign=middle;spacingTop=-1;spacingLeft=3;spacingRight=3;rotatable=0;labelPosition=right;points=[];portConstraint=eastwest;strokeColor=inherit;rounded=0;" vertex="1" parent="y8lSkwkgNfRTHlhiDQfK-8">
          <mxGeometry y="30" width="213" height="8" as="geometry" />
        </mxCell>
        <mxCell id="y8lSkwkgNfRTHlhiDQfK-10" value="+ HomeButton(ctx: Context): void&#xa;+ SearchButton(ctx: Context): void&#xa;+ LikedButton(ctx: Context): void&#xa;+ AccountButton(ctx: Context): void" style="text;strokeColor=none;fillColor=none;align=left;verticalAlign=top;spacingLeft=4;spacingRight=4;overflow=hidden;rotatable=0;points=[[0,0.5],[1,0.5]];portConstraint=eastwest;rounded=0;" vertex="1" parent="y8lSkwkgNfRTHlhiDQfK-8">
          <mxGeometry y="38" width="213" height="70" as="geometry" />
        </mxCell>
      </root>
    </mxGraphModel>
  </diagram>
</mxfile>
